<?xml version="1.0" encoding="UTF-8"?>
<svg version="1.1" xmlns="http://www.w3.org/2000/svg" width="320" height="320">
<path d="M0 0 C105.6 0 211.2 0 320 0 C320 105.6 320 211.2 320 320 C214.4 320 108.8 320 0 320 C0 214.4 0 108.8 0 0 Z " fill="#F9F9F9" transform="translate(0,0)"/>
<path d="M0 0 C6.92251374 6.06943629 9.56132569 12.43933978 10.27734375 21.515625 C10.63013014 35.23195968 8.378161 48.89611825 -1.14453125 59.35546875 C-8.41762016 66.15772737 -14.93454143 68.56438019 -24.93359375 68.48266602 C-34.15023747 68.16701297 -40.62106584 64.02755144 -47.2421875 57.90234375 C-53.91034 50.68592094 -55.63895985 43.70044173 -55.40625 33.99609375 C-54.75215138 24.21965538 -48.11559768 16.19778163 -42 9 C-41.33226563 8.11828125 -40.66453125 7.2365625 -39.9765625 6.328125 C-35.31492296 0.50528284 -31.59344502 -2.35492493 -24.1875 -3.66796875 C-7.01380599 -5.45689521 -7.01380599 -5.45689521 0 0 Z " fill="#050505" transform="translate(125,139)"/>
<path d="M0 0 C6.00734501 5.48496718 7.68994309 11.88856036 8.28515625 19.78125 C8.74033069 33.20322669 6.30744641 47.50756228 -2.734375 58.015625 C-9.36490495 64.05938239 -16.68092978 64.55217514 -25.375 64.3046875 C-30.18558113 63.90034986 -33.16890489 62.87127042 -37 60 C-37.73605469 59.48695313 -38.47210938 58.97390625 -39.23046875 58.4453125 C-46.41311478 52.83875797 -51.71867815 45.00612679 -53.37255859 35.96289062 C-54.36639941 27.12041598 -53.19158053 19.40280928 -48 12 C-47.33097656 11.03513672 -47.33097656 11.03513672 -46.6484375 10.05078125 C-36.32854383 -3.23824384 -14.74676787 -9.689868 0 0 Z " fill="#040404" transform="translate(241,144)"/>
<path d="M0 0 C6.30575806 -0.45041129 10.87483525 0.10418003 16 4 C20.58679859 9.96707069 21.88635841 15.86633507 22.0625 23.25 C22.09432373 24.166604 22.12614746 25.08320801 22.15893555 26.02758789 C22.31460984 35.79722501 20.54898408 45.35951857 14 53 C9.5533852 57.48478317 6.06760372 60.08130014 0 62 C-1.78827353 51.95324626 -2.28725179 42.287172 -2.20581055 32.11230469 C-2.18741337 29.73882365 -2.18530278 27.36573295 -2.18554688 24.9921875 C-2.13825203 4.27650406 -2.13825203 4.27650406 0 0 Z " fill="#F6F6F6" transform="translate(107,140)"/>
<path d="M0 0 C0.33 17.82 0.66 35.64 1 54 C-8.77175553 52.77853056 -13.37946028 49.61314821 -19.375 42 C-24.34836534 34.77480535 -25.88275077 28.69264304 -25 20 C-23.7066066 13.30668918 -20.60253911 7.99806982 -16 3 C-15.01 2.34 -14.02 1.68 -13 1 C-12.38125 1.165 -11.7625 1.33 -11.125 1.5 C-7.44229861 2.36651797 -3.94918766 0 0 0 Z " fill="#F3F3F3" transform="translate(216,149)"/>
<path d="M0 0 C6.92251374 6.06943629 9.56132569 12.43933978 10.27734375 21.515625 C10.631243 35.27522783 8.33740149 48.80656833 -1.109375 59.35546875 C-5.72352168 63.72299725 -9.9113044 66.2287431 -16 68 C-17 65 -17 65 -16 62 C-14.36328125 60.859375 -14.36328125 60.859375 -12.3125 59.75 C-4.41509777 54.98895429 -0.72772733 48.70075077 2 40 C3.21127597 34.79118859 3.03014357 29.93697859 2.8125 24.625 C2.78446289 23.24441406 2.78446289 23.24441406 2.75585938 21.8359375 C2.50652548 15.71194702 1.36452222 12.11083736 -2 7 C-2 6.34 -2 5.68 -2 5 C-7.84706389 2.46850893 -7.84706389 2.46850893 -18 1 C-18.66 10.24 -19.32 19.48 -20 29 C-20.495 27.02 -20.495 27.02 -21 25 C-22.32 25.33 -23.64 25.66 -25 26 C-24.67 25.01 -24.34 24.02 -24 23 C-23.34 23 -22.68 23 -22 23 C-21.67 21.68 -21.34 20.36 -21 19 C-23.64 19 -26.28 19 -29 19 C-28.34 17.35 -27.68 15.7 -27 14 C-26.34 14 -25.68 14 -25 14 C-24.69514462 11.05461992 -24.69514462 11.05461992 -26.25 9.375 C-28.24945138 7.80400249 -29.45551859 7.15903009 -32 7 C-33.64594139 8.39588754 -33.64594139 8.39588754 -35 10 C-35.66 10 -36.32 10 -37 10 C-37.04125 10.7425 -37.0825 11.485 -37.125 12.25 C-38 15 -38 15 -41.0625 17 C-42.031875 17.66 -43.00125 18.32 -44 19 C-44.50241322 21.6704053 -44.50241322 21.6704053 -44 24 C-43.34 24.33 -42.68 24.66 -42 25 C-42.33 25.33 -42.66 25.66 -43 26 C-42.34 26.66 -41.68 27.32 -41 28 C-41.66 28.99 -42.32 29.98 -43 31 C-43 31.99 -43 32.98 -43 34 C-44.32 33.67 -45.64 33.34 -47 33 C-48.73666727 35.19832713 -48.73666727 35.19832713 -50 38 C-49.24714403 40.59047977 -49.24714403 40.59047977 -48 43 C-48 44.32 -48 45.64 -48 47 C-47.01 47.33 -46.02 47.66 -45 48 C-45.33 48.99 -45.66 49.98 -46 51 C-50.875 49.25 -50.875 49.25 -52 47 C-52.22950319 44.795636 -52.41075933 42.58607827 -52.5625 40.375 C-52.64628906 39.18648437 -52.73007813 37.99796875 -52.81640625 36.7734375 C-52.87699219 35.85820312 -52.93757813 34.94296875 -53 34 C-53.99 34.495 -53.99 34.495 -55 35 C-54.41631145 24.29904323 -48.64276492 17.03841654 -42 9 C-41.33097656 8.11441406 -40.66195312 7.22882813 -39.97265625 6.31640625 C-35.30685785 0.50314206 -31.58960806 -2.3556052 -24.1875 -3.66796875 C-7.01380599 -5.45689521 -7.01380599 -5.45689521 0 0 Z " fill="#131313" transform="translate(125,139)"/>
<path d="M0 0 C-1.86929962 3.55166929 -3.14648437 5.63262349 -7 7 C-7.66 7 -8.32 7 -9 7 C-9.78375 7.78375 -10.5675 8.5675 -11.375 9.375 C-13.62353228 11.62353228 -15.09953026 12.86052975 -18 14 C-18.33 14 -18.66 14 -19 14 C-19 11.69 -19 9.38 -19 7 C-19.59167969 7.22816406 -20.18335938 7.45632812 -20.79296875 7.69140625 C-28.64147627 10.54657293 -28.64147627 10.54657293 -33 9 C-40.3620858 17.05302589 -43.46203263 24.10434447 -43.34375 35.08984375 C-42.44763227 42.67629495 -37.67662903 49.9867074 -32 55 C-27.50026712 58.06618966 -23.39499757 60.10873502 -18 61 C-18.24349686 60.13000366 -18.24349686 60.13000366 -18.49191284 59.24243164 C-19.29979155 55.67687649 -19.1420404 52.07540297 -19.1328125 48.4375 C-19.13424759 47.19504517 -19.13424759 47.19504517 -19.13571167 45.92749023 C-19.13639106 44.17919844 -19.1345536 42.43090411 -19.13037109 40.68261719 C-19.12501944 38.00970788 -19.13032424 35.3369666 -19.13671875 32.6640625 C-19.13605793 30.9635413 -19.13477667 29.2630202 -19.1328125 27.5625 C-19.13483673 26.76448975 -19.13686096 25.96647949 -19.13894653 25.14428711 C-19.12397127 21.59270863 -18.95635763 18.41699537 -18 15 C-17.34 15 -16.68 15 -16 15 C-16 15.66 -16 16.32 -16 17 C-15.01 16.67 -14.02 16.34 -13 16 C-12.505 18.475 -12.505 18.475 -12 21 C-12.99 21.495 -12.99 21.495 -14 22 C-13.01 22.99 -12.02 23.98 -11 25 C-11.66 26.65 -12.32 28.3 -13 30 C-13.66 30 -14.32 30 -15 30 C-14.505 30.94875 -14.01 31.8975 -13.5 32.875 C-12 36 -12 36 -12 38 C-12.66 38 -13.32 38 -14 38 C-13.505 43.445 -13.505 43.445 -13 49 C-10.69 49 -8.38 49 -6 49 C-6.33 49.928125 -6.66 50.85625 -7 51.8125 C-8.14967004 54.92029291 -8.14967004 54.92029291 -8 58 C-9 60.1875 -9 60.1875 -10 62 C-11.65 61.67 -13.3 61.34 -15 61 C-15.33 60.01 -15.66 59.02 -16 58 C-16.66 60.31 -17.32 62.62 -18 65 C-18.495 64.01 -18.495 64.01 -19 63 C-19.99 63.99 -19.99 63.99 -21 65 C-21.99 65.495 -21.99 65.495 -23 66 C-33.67962332 61.69067831 -41.15553557 54.49854464 -45.73828125 43.859375 C-48.43216738 36.52235272 -48.38289224 28.44501077 -46.0703125 21.01171875 C-44.89533633 18.48129621 -43.60051332 16.28221344 -42 14 C-41.33097656 13.03513672 -41.33097656 13.03513672 -40.6484375 12.05078125 C-32.53541248 1.60356187 -12.36028766 -8.24019177 0 0 Z " fill="#0C0C0C" transform="translate(235,142)"/>
<path d="M0 0 C4.99199413 1.30742703 8.29838945 3.51387777 12 7 C12.52400391 7.48984375 13.04800781 7.9796875 13.58789062 8.484375 C18.07919326 12.82466247 21.31972639 17.33770013 24 23 C24.40992188 23.78117187 24.81984375 24.56234375 25.2421875 25.3671875 C29.68570813 35.20422282 29.70324564 48.8433877 27 59.25 C26.39276187 60.85706277 25.71671031 62.43868158 25 64 C24.46246094 65.19496094 23.92492187 66.38992187 23.37109375 67.62109375 C14.7765968 86.00451618 2.33338292 102.77860068 -11 118 C-12.32 117.67 -13.64 117.34 -15 117 C-14.58464471 111.96853702 -11.89327287 109.00974265 -8.75 105.3125 C16.19568835 75.34959004 16.19568835 75.34959004 24.41796875 38.3125 C22.72646913 24.90697033 16.40893478 14.57165651 6.3671875 5.8125 C4.29130692 4.22304688 2.38168747 3.05364976 0 2 C0 1.34 0 0.68 0 0 Z " fill="#141414" transform="translate(261,112)"/>
<path d="M0 0 C0.66 0 1.32 0 2 0 C0.30811885 5.30860067 -1.55862857 10.48833334 -3.7019043 15.63085938 C-12.99956192 37.98024496 -23.02691076 63.71196425 -23.1875 88.25 C-23.20167969 89.24515625 -23.21585938 90.2403125 -23.23046875 91.265625 C-22.98916707 94.12852626 -22.64195693 95.65652587 -21 98 C-14.47683043 102.58700968 -6.68562649 104.37571811 1 106 C1.33 107.32 1.66 108.64 2 110 C-7.36279685 109.37581354 -17.75717779 107.33746943 -25 101 C-29.87974947 94.57927701 -29.67639492 89.03266317 -28.62915039 81.24072266 C-27.51388284 74.37030299 -26.03056951 67.73742509 -24.0625 61.0625 C-23.76529053 60.05106934 -23.46808105 59.03963867 -23.16186523 57.99755859 C-8.04834722 8.04834722 -8.04834722 8.04834722 0 0 Z " fill="#151515" transform="translate(54,110)"/>
<path d="M0 0 C0.33 0.99 0.66 1.98 1 3 C3.17532857 5.17532857 4.10274469 5.3662254 7 6 C7.66 6.33 8.32 6.66 9 7 C8.505 4.525 8.505 4.525 8 2 C8.99 2 9.98 2 11 2 C10.67 4.97 10.34 7.94 10 11 C9.34 11 8.68 11 8 11 C7.67 11.66 7.34 12.32 7 13 C6.4225 12.360625 5.845 11.72125 5.25 11.0625 C3.02015684 9.01847711 2.00350106 8.09688713 -1 8 C-2.64594139 9.39588754 -2.64594139 9.39588754 -4 11 C-4.66 11 -5.32 11 -6 11 C-6.04125 11.7425 -6.0825 12.485 -6.125 13.25 C-7 16 -7 16 -10.0625 18 C-11.031875 18.66 -12.00125 19.32 -13 20 C-13.50241322 22.6704053 -13.50241322 22.6704053 -13 25 C-12.34 25.33 -11.68 25.66 -11 26 C-11.33 26.33 -11.66 26.66 -12 27 C-11.34 27.66 -10.68 28.32 -10 29 C-10.66 29.99 -11.32 30.98 -12 32 C-12 32.99 -12 33.98 -12 35 C-13.32 34.67 -14.64 34.34 -16 34 C-17.73666727 36.19832713 -17.73666727 36.19832713 -19 39 C-18.24714403 41.59047977 -18.24714403 41.59047977 -17 44 C-17 45.32 -17 46.64 -17 48 C-16.01 48.33 -15.02 48.66 -14 49 C-14.33 49.99 -14.66 50.98 -15 52 C-19.875 50.25 -19.875 50.25 -21 48 C-21.22950319 45.795636 -21.41075933 43.58607827 -21.5625 41.375 C-21.64628906 40.18648437 -21.73007813 38.99796875 -21.81640625 37.7734375 C-21.87699219 36.85820312 -21.93757813 35.94296875 -22 35 C-22.99 35.495 -22.99 35.495 -24 36 C-23.48780775 26.60980879 -10.66242186 0 0 0 Z " fill="#1B1B1B" transform="translate(94,138)"/>
<path d="M0 0 C0.66 0 1.32 0 2 0 C2 0.66 2 1.32 2 2 C2.99 1.67 3.98 1.34 5 1 C5.33 2.65 5.66 4.3 6 6 C5.01 6.495 5.01 6.495 4 7 C4.99 7.99 5.98 8.98 7 10 C6.34 11.65 5.68 13.3 5 15 C4.34 15 3.68 15 3 15 C3.495 15.94875 3.99 16.8975 4.5 17.875 C6 21 6 21 6 23 C5.34 23 4.68 23 4 23 C4.33 26.63 4.66 30.26 5 34 C7.31 34 9.62 34 12 34 C11.67 34.928125 11.34 35.85625 11 36.8125 C9.85032996 39.92029291 9.85032996 39.92029291 10 43 C9 45.1875 9 45.1875 8 47 C6.35 46.67 4.7 46.34 3 46 C2.505 44.515 2.505 44.515 2 43 C1.67 44.32 1.34 45.64 1 47 C0.01 46.67 -0.98 46.34 -2 46 C-1.34 46 -0.68 46 0 46 C-0.16233124 45.42000244 -0.32466248 44.84000488 -0.49191284 44.24243164 C-1.29979155 40.67687649 -1.1420404 37.07540297 -1.1328125 33.4375 C-1.13376923 32.60919678 -1.13472595 31.78089355 -1.13571167 30.92749023 C-1.13639106 29.17919844 -1.1345536 27.43090411 -1.13037109 25.68261719 C-1.12501944 23.00970788 -1.13032424 20.3369666 -1.13671875 17.6640625 C-1.13605793 15.9635413 -1.13477667 14.2630202 -1.1328125 12.5625 C-1.13483673 11.76448975 -1.13686096 10.96647949 -1.13894653 10.14428711 C-1.12397127 6.59270863 -0.95635763 3.41699537 0 0 Z " fill="#0A0A0A" transform="translate(217,157)"/>
<path d="M0 0 C0.33 0.66 0.66 1.32 1 2 C1.66 2 2.32 2 3 2 C4.63965087 9.14419308 3.73297614 13.08336346 -0.0625 19.34765625 C-5.12786208 26.28189184 -10.77344138 30.60681931 -19 33 C-20 30 -20 30 -19 27 C-17.36328125 25.859375 -17.36328125 25.859375 -15.3125 24.75 C-7.41509777 19.98895429 -3.72772733 13.70075077 -1 5 C-0.64134105 3.33859919 -0.30064087 1.67287296 0 0 Z " fill="#0D0D0D" transform="translate(128,174)"/>
<path d="M0 0 C0.66 0 1.32 0 2 0 C0.30778651 5.30964344 -1.56010029 10.49005563 -3.70263672 15.6340332 C-9.84312592 30.38551582 -14.70368578 45.61572333 -19 61 C-20.32 60.34 -21.64 59.68 -23 59 C-20.86893928 50.40219656 -17.98355999 42.20213654 -14.8125 33.9375 C-14.57210999 33.30702759 -14.33171997 32.67655518 -14.08404541 32.02697754 C-3.01080322 3.01080322 -3.01080322 3.01080322 0 0 Z " fill="#1B1B1B" transform="translate(54,110)"/>
<path d="M0 0 C4.34263862 -0.16702456 7.20960634 -0.12999997 11 2 C11.14973506 11.71614177 10.69613269 21.31629705 10 31 C9.67 29.68 9.34 28.36 9 27 C7.68 27.33 6.36 27.66 5 28 C5.33 27.01 5.66 26.02 6 25 C6.66 25 7.32 25 8 25 C8.33 23.68 8.66 22.36 9 21 C6.36 21 3.72 21 1 21 C1.66 19.35 2.32 17.7 3 16 C3.66 16 4.32 16 5 16 C5.66 15.67 6.32 15.34 7 15 C7 14.01 7 13.02 7 12 C7.66 12 8.32 12 9 12 C9.33 9.03 9.66 6.06 10 3 C9.01 3 8.02 3 7 3 C7.33 4.65 7.66 6.3 8 8 C5.69 8 3.38 8 1 8 C1 7.34 1 6.68 1 6 C0.01 5.34 -0.98 4.68 -2 4 C-1.34 2.68 -0.68 1.36 0 0 Z " fill="#020202" transform="translate(95,137)"/>
<path d="M0 0 C0.33 0 0.66 0 1 0 C1.32512629 7.66485235 0.09741566 14.58055043 -1.5 22.0625 C-1.85771484 23.79016602 -1.85771484 23.79016602 -2.22265625 25.55273438 C-2.80720148 28.37024239 -3.39980583 31.18579171 -4 34 C-4.99 33.67 -5.98 33.34 -7 33 C-7.5895054 22.37252757 -6.85572299 11.71144598 -2 2 C-1.34 2 -0.68 2 0 2 C0 1.34 0 0.68 0 0 Z " fill="#161616" transform="translate(33,167)"/>
<path d="M0 0 C4.99199413 1.30742703 8.29838945 3.51387777 12 7 C12.52400391 7.48984375 13.04800781 7.9796875 13.58789062 8.484375 C21.04414641 15.68992231 27.11210165 25.75113792 28.2421875 36.25 C28.25 38.1875 28.25 38.1875 28 41 C26.515 40.505 26.515 40.505 25 40 C24.23687578 37.64452996 23.65050874 35.40855765 23.125 33 C20.20665161 21.03717178 14.58729289 11.44876682 4.0625 4.625 C3.29035156 4.16351563 2.51820313 3.70203125 1.72265625 3.2265625 C1.15417969 2.82179688 0.58570313 2.41703125 0 2 C0 1.34 0 0.68 0 0 Z " fill="#191919" transform="translate(261,112)"/>
<path d="M0 0 C0.66 0 1.32 0 2 0 C2.928125 1.175625 2.928125 1.175625 3.875 2.375 C6.92235077 6.13937448 8.78545623 6.85178893 13.6171875 7.44140625 C23.32024719 7.86258176 29.84776554 6.4393575 38.2421875 1.53125 C41 0 41 0 44 0 C41.90548226 5.20858909 37.8712697 6.71381538 33 9 C24.61804787 12.25964805 15.63676248 11.87572987 7.171875 9.05859375 C3.6598878 7.34681582 2.09045522 5.27504651 0 2 C0 1.34 0 0.68 0 0 Z " fill="#1D1D1D" transform="translate(136,201)"/>
<path d="M0 0 C0.99 0 1.98 0 3 0 C2.95875 0.886875 2.9175 1.77375 2.875 2.6875 C2.99897246 5.97277013 3.61387904 8.05449295 5 11 C4.34 11 3.68 11 3 11 C3.33 14.63 3.66 18.26 4 22 C6.31 22 8.62 22 11 22 C9.33248852 25.94139078 6.77289351 28.7892812 4 32 C-1.37401848 26.62598152 -0.7616996 13.34398515 -1 6 C-0.5625 2.25 -0.5625 2.25 0 0 Z " fill="#BEBEBE" transform="translate(218,169)"/>
<path d="M0 0 C0.33 0 0.66 0 1 0 C1.01417969 0.97582031 1.02835937 1.95164063 1.04296875 2.95703125 C1.09066406 4.22933594 1.13835937 5.50164062 1.1875 6.8125 C1.22230469 8.07707031 1.25710937 9.34164062 1.29296875 10.64453125 C1.65620394 14.1765335 1.65620394 14.1765335 4.55078125 15.94921875 C5.35902344 16.29597656 6.16726562 16.64273438 7 17 C7.66 15.68 8.32 14.36 9 13 C9.99 13.33 10.98 13.66 12 14 C11.01 15.485 11.01 15.485 10 17 C10.80404463 20.1628485 10.80404463 20.1628485 12 23 C11.01 23 10.02 23 9 23 C8.67 24.32 8.34 25.64 8 27 C1.20770981 19.83552953 -2.34708888 14.21634614 -2.30078125 4.13671875 C-2 2 -2 2 0 0 Z " fill="#111111" transform="translate(72,172)"/>
<path d="M0 0 C4.87939176 1.39411193 7.10832229 3.90345657 10 8 C10.8125 10.875 10.8125 10.875 11 13 C10.360625 13.28875 9.72125 13.5775 9.0625 13.875 C6.84793921 14.82823451 6.84793921 14.82823451 6 17 C5.01 17 4.02 17 3 17 C3.33 16.01 3.66 15.02 4 14 C3.34 13.34 2.68 12.68 2 12 C2.99 11.67 3.98 11.34 5 11 C5 10.34 5 9.68 5 9 C4.1028125 9.2784375 4.1028125 9.2784375 3.1875 9.5625 C1 10 1 10 -2 9 C-2.875 7.25 -2.875 7.25 -3 5 C-1.5625 2.25 -1.5625 2.25 0 0 Z " fill="#0B0B0B" transform="translate(236,142)"/>
<path d="M0 0 C2.51083114 1.25541557 2.87125446 2.50063488 4 5 C-1.03769648 9.89031707 -5.25517094 12.95246261 -12 15 C-13 12 -13 12 -12 9 C-10.29296875 7.75390625 -10.29296875 7.75390625 -8.1875 6.5625 C-5.00979638 4.67983897 -2.47431867 2.78360851 0 0 Z " fill="#151515" transform="translate(121,192)"/>
<path d="M0 0 C0.66 0.33 1.32 0.66 2 1 C1.79375 1.94875 1.5875 2.8975 1.375 3.875 C1.25125 4.90625 1.1275 5.9375 1 7 C1.66 7.66 2.32 8.32 3 9 C2.31550781 9.77923828 2.31550781 9.77923828 1.6171875 10.57421875 C-0.10132722 12.65878481 -1.65507919 14.65512184 -3 17 C-2.52269471 19.7774903 -2.52269471 19.7774903 -1 22 C-1 23.32 -1 24.64 -1 26 C-0.01 26.33 0.98 26.66 2 27 C1.67 27.99 1.34 28.98 1 30 C-3.875 28.25 -3.875 28.25 -5 26 C-5.68663215 16.99498821 -5.46465455 9.0686528 -1 1 C-0.67 0.67 -0.34 0.34 0 0 Z " fill="#EFEFEF" transform="translate(78,160)"/>
<path d="M0 0 C0.99 0 1.98 0 3 0 C2.67 2.97 2.34 5.94 2 9 C1.34 9 0.68 9 0 9 C-0.33 9.66 -0.66 10.32 -1 11 C-1.5775 10.360625 -2.155 9.72125 -2.75 9.0625 C-5.48427739 6.52634706 -5.48427739 6.52634706 -9 6 C-11.6949474 7.86598514 -11.6949474 7.86598514 -14.25 10.4375 C-15.14203125 11.28183594 -16.0340625 12.12617188 -16.953125 12.99609375 C-17.62859375 13.65738281 -18.3040625 14.31867188 -19 15 C-19 11.47601214 -18.44884893 10.98495633 -16.1875 8.4375 C-15.40439453 7.53837891 -15.40439453 7.53837891 -14.60546875 6.62109375 C-12.47498075 4.46987107 -10.92491889 3.00494609 -7.80859375 2.98828125 C-6.63490234 3.14876953 -6.63490234 3.14876953 -5.4375 3.3125 C-4.25994141 3.46138672 -4.25994141 3.46138672 -3.05859375 3.61328125 C-1 4 -1 4 1 5 C0.67 3.35 0.34 1.7 0 0 Z " fill="#1F1F1F" transform="translate(102,140)"/>
<path d="M0 0 C0.33 0 0.66 0 1 0 C1.19865739 8.89543642 1.33447255 17.32910197 -1 26 C-1.33 26 -1.66 26 -2 26 C-2 24.02 -2 22.04 -2 20 C-3.32 20.33 -4.64 20.66 -6 21 C-7.0625 19.1875 -7.0625 19.1875 -8 17 C-7.505 15.515 -7.505 15.515 -7 14 C-6.34 14 -5.68 14 -5 14 C-4.67 13.34 -4.34 12.68 -4 12 C-3.34 12.66 -2.68 13.32 -2 14 C-0.99740493 10.99221479 -0.69685358 8.46179353 -0.4375 5.3125 C-0.35371094 4.31863281 -0.26992187 3.32476562 -0.18359375 2.30078125 C-0.12300781 1.54152344 -0.06242188 0.78226563 0 0 Z " fill="#333333" transform="translate(248,160)"/>
<path d="M0 0 C3.18141867 -0.46557346 5.25343123 -0.50963377 7.95703125 1.3359375 C9.6935608 2.84258024 11.369718 4.37936464 13 6 C12.67 7.32 12.34 8.64 12 10 C10.35 9.67 8.7 9.34 7 9 C7 8.34 7 7.68 7 7 C6.236875 6.71125 5.47375 6.4225 4.6875 6.125 C2 5 2 5 -1 3 C-0.34 3 0.32 3 1 3 C0.67 2.01 0.34 1.02 0 0 Z " fill="#151515" transform="translate(116,137)"/>
<path d="M0 0 C2 2 2 2 3 5 C3.99 5.66 4.98 6.32 6 7 C6 7.99 6 8.98 6 10 C6.99 9.67 7.98 9.34 9 9 C8 12 8 12 5.0625 13.6875 C2 15 2 15 0 15 C-0.19517554 13.06325815 -0.38087873 11.12555991 -0.5625 9.1875 C-0.66691406 8.10855469 -0.77132812 7.02960938 -0.87890625 5.91796875 C-1 3 -1 3 0 0 Z " fill="#EEEEEE" transform="translate(107,187)"/>
<path d="M0 0 C1.33333333 0 2.66666667 0 4 0 C4.66 1.98 5.32 3.96 6 6 C7.32 4.68 8.64 3.36 10 2 C10.66 2.33 11.32 2.66 12 3 C11.25 5.9375 11.25 5.9375 10 9 C8 9.9375 8 9.9375 6 10 C4 9 4 9 3 6 C2.67 7.32 2.34 8.64 2 10 C1.01 9.67 0.02 9.34 -1 9 C-0.34 9 0.32 9 1 9 C0.67 6.03 0.34 3.06 0 0 Z " fill="#363636" transform="translate(216,194)"/>
<path d="M0 0 C0.33 0.99 0.66 1.98 1 3 C0.4946875 3.30292969 -0.010625 3.60585937 -0.53125 3.91796875 C-2.49479823 5.18414568 -4.28557949 6.41018649 -6 8 C-6.58768383 10.71471005 -6.58768383 10.71471005 -6 13 C-5.34 13.33 -4.68 13.66 -4 14 C-4.33 14.33 -4.66 14.66 -5 15 C-4.34 15.66 -3.68 16.32 -3 17 C-3.66 17.99 -4.32 18.98 -5 20 C-5 20.99 -5 21.98 -5 23 C-6.5 21.625 -6.5 21.625 -8 20 C-8 19.34 -8 18.68 -8 18 C-8.165 17.38125 -8.33 16.7625 -8.5 16.125 C-9.25780536 12.90432723 -9.26478383 10.5736983 -7.875 7.5625 C-5.57096689 4.41365475 -3.07618121 2.39258538 0 0 Z " fill="#252525" transform="translate(87,150)"/>
<path d="M0 0 C2.96542393 4.44813589 2.54360006 8.81927566 2.75 14.0625 C2.80542969 15.08150391 2.86085937 16.10050781 2.91796875 17.15039062 C2.96050781 18.12298828 3.00304687 19.09558594 3.046875 20.09765625 C3.08651367 20.98976807 3.12615234 21.88187988 3.16699219 22.80102539 C3 25 3 25 1 27 C-0.0394775 23.8815675 -0.11494838 21.72524414 -0.09765625 18.45703125 C-0.09443359 17.38388672 -0.09121094 16.31074219 -0.08789062 15.20507812 C-0.07951172 14.08552734 -0.07113281 12.96597656 -0.0625 11.8125 C-0.05798828 10.68134766 -0.05347656 9.55019531 -0.04882812 8.38476562 C-0.03703498 5.58979073 -0.0205765 2.7949218 0 0 Z " fill="#070707" transform="translate(216,170)"/>
<path d="M0 0 C1.65 0.33 3.3 0.66 5 1 C5 5.95 5 10.9 5 16 C4.67 14.68 4.34 13.36 4 12 C2.68 12.33 1.36 12.66 0 13 C0.33 12.01 0.66 11.02 1 10 C1.66 10 2.32 10 3 10 C3.33 8.68 3.66 7.36 4 6 C1.36 6 -1.28 6 -4 6 C-3.34 4.35 -2.68 2.7 -2 1 C-1.34 1 -0.68 1 0 1 C0 0.67 0 0.34 0 0 Z " fill="#373737" transform="translate(100,152)"/>
<path d="M0 0 C0.66 0 1.32 0 2 0 C1.31752303 2.09396342 0.62437137 4.18348783 -0.08203125 6.26953125 C-0.72341748 8.17731413 -1.34420039 10.09209259 -1.94921875 12.01171875 C-2.43841797 13.49091797 -2.43841797 13.49091797 -2.9375 15 C-3.38416016 16.3921875 -3.38416016 16.3921875 -3.83984375 17.8125 C-5 20 -5 20 -7.12890625 20.8125 C-7.74636719 20.874375 -8.36382812 20.93625 -9 21 C-6.76686274 13.55620912 -3.59727921 6.88023305 0 0 Z " fill="#262626" transform="translate(54,110)"/>
<path d="M0 0 C0.99 0.33 1.98 0.66 3 1 C3.75 3.25 3.75 3.25 4 6 C2.3125 8.375 2.3125 8.375 0 10 C-2.25 9.75 -2.25 9.75 -4 9 C-3.46930939 5.17902761 -2.50298434 2.93828597 0 0 Z " fill="#121212" transform="translate(250,220)"/>
<path d="M0 0 C6 9 6 9 6 13 C5.34 13.66 4.68 14.32 4 15 C3.01719585 13.39805929 2.03888283 11.79336258 1.0625 10.1875 C0.51722656 9.29417969 -0.02804688 8.40085938 -0.58984375 7.48046875 C-2 5 -2 5 -3 2 C-2.01 2 -1.02 2 0 2 C0 1.34 0 0.68 0 0 Z " fill="#171717" transform="translate(192,182)"/>
<path d="M0 0 C0.66 0 1.32 0 2 0 C2.928125 1.175625 2.928125 1.175625 3.875 2.375 C7.64174794 7.02804158 11.4307097 7.37064755 17.25 8.125 C18.51328125 8.29257813 19.7765625 8.46015625 21.078125 8.6328125 C22.04234375 8.75398437 23.0065625 8.87515625 24 9 C24 9.33 24 9.66 24 10 C9.79668191 10.57667607 9.79668191 10.57667607 4 7 C0 2.79487179 0 2.79487179 0 0 Z " fill="#191919" transform="translate(136,201)"/>
<path d="M0 0 C0.66 0.33 1.32 0.66 2 1 C2.4140625 3.28515625 2.4140625 3.28515625 2.625 6.0625 C2.69976562 6.98160156 2.77453125 7.90070313 2.8515625 8.84765625 C2.90054688 9.55792969 2.94953125 10.26820312 3 11 C2.38125 11.12375 1.7625 11.2475 1.125 11.375 C-1.19120832 11.87197356 -1.19120832 11.87197356 -3 14 C-4.37095624 10.30962722 -3.60010967 8.29116165 -2.0625 4.75 C-1.68222656 3.85796875 -1.30195312 2.9659375 -0.91015625 2.046875 C-0.60980469 1.37140625 -0.30945312 0.6959375 0 0 Z " fill="#EBEBEB" transform="translate(53,116)"/>
<path d="M0 0 C0.33 0 0.66 0 1 0 C1.33 4.95 1.66 9.9 2 15 C1.01 15 0.02 15 -1 15 C-2.30089831 12.39820337 -2.16840078 10.4030812 -2.1875 7.5 C-2.20167969 6.5203125 -2.21585938 5.540625 -2.23046875 4.53125 C-2 2 -2 2 0 0 Z " fill="#0A0A0A" transform="translate(190,169)"/>
<path d="M0 0 C0.33 0 0.66 0 1 0 C1 4.95 1 9.9 1 15 C0.34 13.68 -0.32 12.36 -1 11 C-1.66 11 -2.32 11 -3 11 C-3.33 11.99 -3.66 12.98 -4 14 C-4 12.68 -4 11.36 -4 10 C-4.66 10 -5.32 10 -6 10 C-5.34 8.35 -4.68 6.7 -4 5 C-3.01 5 -2.02 5 -1 5 C-0.67 3.35 -0.34 1.7 0 0 Z " fill="#3B3B3B" transform="translate(104,169)"/>
<path d="M0 0 C1.93719378 -0.05406122 3.87481921 -0.09282025 5.8125 -0.125 C6.89144531 -0.14820313 7.97039062 -0.17140625 9.08203125 -0.1953125 C12 0 12 0 15 2 C13.12050295 5.57104439 11.82946843 7.54744301 8 9 C7.06576355 5.98968256 6.95550089 5.13349732 8 2 C5.36 1.67 2.72 1.34 0 1 C0 0.67 0 0.34 0 0 Z " fill="#242424" transform="translate(220,140)"/>
<path d="M0 0 C0.33 0 0.66 0 1 0 C1.1953125 1.98567708 1.390625 3.97135417 1.5859375 5.95703125 C1.92665391 8.29988142 1.92665391 8.29988142 4 11 C4 12.32 4 13.64 4 15 C4.99 15.33 5.98 15.66 7 16 C6.67 16.99 6.34 17.98 6 19 C1.125 17.25 1.125 17.25 0 15 C-0.0716735 12.44842345 -0.09308442 9.92527029 -0.0625 7.375 C-0.05798828 6.66859375 -0.05347656 5.9621875 -0.04882812 5.234375 C-0.03703875 3.48954725 -0.01910324 1.744763 0 0 Z " fill="#9D9D9D" transform="translate(73,171)"/>
<path d="M0 0 C2 3 2 3 2 7 C0 9 0 9 -2 10 C-2.72159424 11.64363134 -3.39351421 13.31050386 -4 15 C-4.66 15 -5.32 15 -6 15 C-6 15.66 -6 16.32 -6 17 C-6.66 16.67 -7.32 16.34 -8 16 C-5.36 10.72 -2.72 5.44 0 0 Z " fill="#E5E5E5" transform="translate(285,176)"/>
<path d="M0 0 C0.33 0 0.66 0 1 0 C1 1.98 1 3.96 1 6 C1.66 6 2.32 6 3 6 C3.66 4.68 4.32 3.36 5 2 C5.33 5.3 5.66 8.6 6 12 C5.01 11.67 4.02 11.34 3 11 C2.67 11.99 2.34 12.98 2 14 C0.09391902 10.78817851 -0.22266247 8.46117397 -0.125 4.75 C-0.09792969 3.41195312 -0.09792969 3.41195312 -0.0703125 2.046875 C-0.04710938 1.37140625 -0.02390625 0.6959375 0 0 Z " fill="#2A2A2A" transform="translate(25,194)"/>
<path d="M0 0 C-0.99 1.485 -0.99 1.485 -2 3 C-2.66 3 -3.32 3 -4 3 C-4.33 3.66 -4.66 4.32 -5 5 C-4.01 4.67 -3.02 4.34 -2 4 C-2.75 5.9375 -2.75 5.9375 -4 8 C-6.125 8.75 -6.125 8.75 -8 9 C-8.33 6.36 -8.66 3.72 -9 1 C-5.92677456 0.08941469 -3.19902639 -0.08886184 0 0 Z " fill="#373737" transform="translate(224,147)"/>
<path d="M0 0 C0.66 0.33 1.32 0.66 2 1 C1.690625 1.5775 1.38125 2.155 1.0625 2.75 C0.07416636 4.84294184 -0.5168613 6.74535275 -1 9 C-3.97 8.505 -3.97 8.505 -7 8 C-6.875 6.25 -6.875 6.25 -6 4 C-2.9375 1.75 -2.9375 1.75 0 0 Z " fill="#151515" transform="translate(208,143)"/>
<path d="M0 0 C-1.83250877 3.1414436 -3.63698023 6.22602027 -6 9 C-6.66 9 -7.32 9 -8 9 C-7.814375 8.2575 -7.62875 7.515 -7.4375 6.75 C-7.00796892 4.05009037 -7.14877026 2.55368923 -8 0 C-4.71023192 -1.09658936 -3.28696233 -0.79953138 0 0 Z " fill="#EBEBEB" transform="translate(258,210)"/>
<path d="M0 0 C0 0.99 0 1.98 0 3 C-5.64399358 5.44064587 -10.97751478 5.19289099 -17 5 C-15 2 -15 2 -12.03125 1.26953125 C-10.8659375 1.11871094 -9.700625 0.96789062 -8.5 0.8125 C-7.3346875 0.65394531 -6.169375 0.49539062 -4.96875 0.33203125 C-2 0 -2 0 0 0 Z " fill="#2D2D2D" transform="translate(168,207)"/>
<path d="M0 0 C2.51083114 1.25541557 2.87125446 2.50063488 4 5 C2.37660195 6.70884005 0.70680947 8.37446717 -1 10 C-1.66 10 -2.32 10 -3 10 C-2.34 8.35 -1.68 6.7 -1 5 C-1.99 4.67 -2.98 4.34 -4 4 C-2.68 2.68 -1.36 1.36 0 0 Z " fill="#1A1A1A" transform="translate(121,192)"/>
<path d="M0 0 C0.66 0.33 1.32 0.66 2 1 C1.01 4.96 0.02 8.92 -1 13 C-3 10 -3 10 -3 6 C-3.66 5.34 -4.32 4.68 -5 4 C-3.35 2.68 -1.7 1.36 0 0 Z " fill="#EDEDED" transform="translate(30,166)"/>
<path d="M0 0 C0.99 0.33 1.98 0.66 3 1 C3.29380531 9.81415929 3.29380531 9.81415929 1 13 C0.01 13.495 0.01 13.495 -1 14 C-0.67 9.38 -0.34 4.76 0 0 Z " fill="#060606" transform="translate(286,152)"/>
<path d="M0 0 C0.66 0 1.32 0 2 0 C2.33 0.99 2.66 1.98 3 3 C3.66 3.66 4.32 4.32 5 5 C-0.75 7 -0.75 7 -3 7 C-3.33 7.99 -3.66 8.98 -4 10 C-4.8125 8.375 -4.8125 8.375 -5 6 C-2.6875 2.75 -2.6875 2.75 0 0 Z " fill="#2A2A2A" transform="translate(92,138)"/>
<path d="M0 0 C2.31 0 4.62 0 7 0 C5.55746343 3.36591866 3.66735273 5.51047079 1 8 C-0.35439668 5.29120665 -0.06501451 2.99066732 0 0 Z " fill="#EEEEEE" transform="translate(220,193)"/>
<path d="M0 0 C0.66 0.66 1.32 1.32 2 2 C1.9765625 4.1640625 1.9765625 4.1640625 1.625 6.625 C1.51414062 7.44226563 1.40328125 8.25953125 1.2890625 9.1015625 C1.19367187 9.72804687 1.09828125 10.35453125 1 11 C0.01 11.33 -0.98 11.66 -2 12 C-2.625 9.6875 -2.625 9.6875 -3 7 C-2.34 6.01 -1.68 5.02 -1 4 C-1.66 3.67 -2.32 3.34 -3 3 C-2.01 2.01 -1.02 1.02 0 0 Z " fill="#F2F2F2" transform="translate(44,121)"/>
<path d="M0 0 C2.97 0.495 2.97 0.495 6 1 C5.1875 3.9375 5.1875 3.9375 4 7 C3.01 7.33 2.02 7.66 1 8 C1 7.34 1 6.68 1 6 C0.01 5.34 -0.98 4.68 -2 4 C-1.34 2.68 -0.68 1.36 0 0 Z " fill="#0E0E0E" transform="translate(95,137)"/>
<path d="M0 0 C0.99 0 1.98 0 3 0 C2.67 3.3 2.34 6.6 2 10 C1.01 9.67 0.02 9.34 -1 9 C-1.09765625 2.84765625 -1.09765625 2.84765625 -1 1 C-0.67 0.67 -0.34 0.34 0 0 Z " fill="#040404" transform="translate(27,191)"/>
<path d="M0 0 C0.99 0.33 1.98 0.66 3 1 C3.33 1.99 3.66 2.98 4 4 C3.01 4.33 2.02 4.66 1 5 C0.67 5.99 0.34 6.98 0 8 C-0.66 7.67 -1.32 7.34 -2 7 C-2 6.34 -2 5.68 -2 5 C-2.66 4.67 -3.32 4.34 -4 4 C-2.68 2.68 -1.36 1.36 0 0 Z " fill="#E7E7E7" transform="translate(198,144)"/>
<path d="M0 0 C1.32 0.66 2.64 1.32 4 2 C3.67 2.99 3.34 3.98 3 5 C2.01 5.33 1.02 5.66 0 6 C0.99 7.32 1.98 8.64 3 10 C1.35 9.67 -0.3 9.34 -2 9 C-2.6875 7.3125 -2.6875 7.3125 -3 5 C-1.5625 2.25 -1.5625 2.25 0 0 Z " fill="#2D2D2D" transform="translate(236,142)"/>
<path d="M0 0 C0.99 0.33 1.98 0.66 3 1 C2.75 2.875 2.75 2.875 2 5 C-0.0625 6.25 -0.0625 6.25 -2 7 C-2.66 5.68 -3.32 4.36 -4 3 C-2.1875 1.4375 -2.1875 1.4375 0 0 Z " fill="#090909" transform="translate(265,203)"/>
<path d="M0 0 C1.32 0.33 2.64 0.66 4 1 C3.34 3.97 2.68 6.94 2 10 C0.68 9.34 -0.64 8.68 -2 8 C-1.34 5.36 -0.68 2.72 0 0 Z " fill="#222222" transform="translate(33,161)"/>
<path d="M0 0 C0.66 0.33 1.32 0.66 2 1 C2.625 3.5625 2.625 3.5625 3 6 C1.68 5.34 0.36 4.68 -1 4 C-0.67 2.68 -0.34 1.36 0 0 Z M0 5 C-0.33 6.65 -0.66 8.3 -1 10 C-2.32 10 -3.64 10 -5 10 C-4.67 9.01 -4.34 8.02 -4 7 C-4.66 6.34 -5.32 5.68 -6 5 C-3 4 -3 4 0 5 Z " fill="#171717" transform="translate(244,149)"/>
<path d="M0 0 C2.625 0.375 2.625 0.375 5 1 C5.33 1.99 5.66 2.98 6 4 C7.65 4 9.3 4 11 4 C11 4.33 11 4.66 11 5 C5.60550707 5.27429625 2.48074195 5.36055646 -2 2 C-1.34 1.34 -0.68 0.68 0 0 Z " fill="#E0E0E0" transform="translate(143,204)"/>
<path d="M0 0 C0.33 0 0.66 0 1 0 C3.33846154 7.26153846 3.33846154 7.26153846 1.625 11 C1.08875 11.66 0.5525 12.32 0 13 C-0.66 12.67 -1.32 12.34 -2 12 C-1.34 8.04 -0.68 4.08 0 0 Z " fill="#E7E7E7" transform="translate(34,171)"/>
<path d="M0 0 C0.99 0.33 1.98 0.66 3 1 C-2.94 6.445 -2.94 6.445 -9 12 C-9 8.47601214 -8.44884893 7.98495633 -6.1875 5.4375 C-5.40439453 4.53837891 -5.40439453 4.53837891 -4.60546875 3.62109375 C-3 2 -3 2 0 0 Z " fill="#E0E0E0" transform="translate(92,143)"/>
<path d="M0 0 C0.33 0 0.66 0 1 0 C1 6.6 1 13.2 1 20 C0.67 20 0.34 20 0 20 C0 17.36 0 14.72 0 12 C-0.66 12 -1.32 12 -2 12 C-2 10.02 -2 8.04 -2 6 C-1.67 6 -1.34 6 -1 6 C-0.67 4.02 -0.34 2.04 0 0 Z " fill="#FDFDFD" transform="translate(214,168)"/>
<path d="M0 0 C1.65 1.32 3.3 2.64 5 4 C4.67 5.32 4.34 6.64 4 8 C0.83884224 6.63016497 0.0072908 6.0109362 -2 3 C-1.34 2.01 -0.68 1.02 0 0 Z " fill="#040404" transform="translate(124,139)"/>
<path d="M0 0 C0.66 0.33 1.32 0.66 2 1 C1.6875 3.375 1.6875 3.375 1 6 C0.01 6.66 -0.98 7.32 -2 8 C-2.66 6.35 -3.32 4.7 -4 3 C-2.68 2.01 -1.36 1.02 0 0 Z " fill="#0C0C0C" transform="translate(276,188)"/>
<path d="M0 0 C0.33 0 0.66 0 1 0 C1 3.3 1 6.6 1 10 C0.01 10 -0.98 10 -2 10 C-2.1953125 3.9453125 -2.1953125 3.9453125 -2 2 C-1.34 1.34 -0.68 0.68 0 0 Z " fill="#050505" transform="translate(72,172)"/>
<path d="M0 0 C1.33617352 0.97528737 2.6688751 1.95533319 4 2.9375 C4.7425 3.48277344 5.485 4.02804688 6.25 4.58984375 C6.8275 5.05519531 7.405 5.52054687 8 6 C8 6.33 8 6.66 8 7 C6.35 7 4.7 7 3 7 C2.67 6.34 2.34 5.68 2 5 C1.34 5.66 0.68 6.32 0 7 C-0.93423645 3.98968256 -1.04449911 3.13349732 0 0 Z " fill="#EBEBEB" transform="translate(265,116)"/>
<path d="M0 0 C1.32 0.99 2.64 1.98 4 3 C3.67 3.99 3.34 4.98 3 6 C1.02 6.33 -0.96 6.66 -3 7 C-2.38722388 4.03824877 -1.74627478 2.61941217 0 0 Z " fill="#0C0C0C" transform="translate(229,191)"/>
<path d="M0 0 C0.99 0 1.98 0 3 0 C2.95875 0.886875 2.9175 1.77375 2.875 2.6875 C2.99897246 5.97277013 3.61387904 8.05449295 5 11 C3.68 10.34 2.36 9.68 1 9 C1 8.34 1 7.68 1 7 C0.34 6.67 -0.32 6.34 -1 6 C-0.67 4.02 -0.34 2.04 0 0 Z " fill="#787878" transform="translate(218,169)"/>
<path d="M0 0 C1.67542976 0.28604898 3.34385343 0.61781233 5 1 C5.625 2.8125 5.625 2.8125 6 5 C5.01 6.485 5.01 6.485 4 8 C3.34 7.67 2.68 7.34 2 7 C2.33 6.34 2.66 5.68 3 5 C2.34 5 1.68 5 1 5 C1 4.01 1 3.02 1 2 C0.34 1.67 -0.32 1.34 -1 1 C-0.67 0.67 -0.34 0.34 0 0 Z " fill="#151515" transform="translate(218,164)"/>
<path d="M0 0 C1.16144531 0.00902344 2.32289062 0.01804688 3.51953125 0.02734375 C4.39996094 0.03894531 5.28039062 0.05054688 6.1875 0.0625 C6.1875 0.3925 6.1875 0.7225 6.1875 1.0625 C2.5575 1.0625 -1.0725 1.0625 -4.8125 1.0625 C-4.8125 2.0525 -4.8125 3.0425 -4.8125 4.0625 C-7.77425123 3.44972388 -9.19308783 2.80877478 -11.8125 1.0625 C-7.81454108 0.10630267 -4.10446078 -0.0414592 0 0 Z " fill="#313131" transform="translate(110.8125,134.9375)"/>
<path d="M0 0 C3.39417765 3.12621626 5.6062718 5.56541027 7 10 C6.01 10 5.02 10 4 10 C3.67 8.68 3.34 7.36 3 6 C2.34 6 1.68 6 1 6 C0.67 4.02 0.34 2.04 0 0 Z " fill="#E1E1E1" transform="translate(273,123)"/>
<path d="M0 0 C0.33 0.66 0.66 1.32 1 2 C0.67 2.66 0.34 3.32 0 4 C0.66 4.33 1.32 4.66 2 5 C0.33333333 6.66666667 -1.33333333 8.33333333 -3 10 C-3.99 8.68 -4.98 7.36 -6 6 C-5.34 5.34 -4.68 4.68 -4 4 C-3.67 4.66 -3.34 5.32 -3 6 C-3 4.68 -3 3.36 -3 2 C-2.01 1.34 -1.02 0.68 0 0 Z " fill="#E9E9E9" transform="translate(54,105)"/>
<path d="M0 0 C0.33 0.66 0.66 1.32 1 2 C1.66 2.33 2.32 2.66 3 3 C2.75 5.375 2.75 5.375 2 8 C-0.0625 9.3125 -0.0625 9.3125 -2 10 C-1.54177532 6.53058454 -1.10868317 3.32604951 0 0 Z " fill="#272727" transform="translate(190,161)"/>
<path d="M0 0 C5.445 1.485 5.445 1.485 11 3 C6.64467851 5.17766075 5.53374042 5.03039555 1 4 C1 3.34 1 2.68 1 2 C0.34 1.67 -0.32 1.34 -1 1 C-0.67 0.67 -0.34 0.34 0 0 Z " fill="#E1E1E1" transform="translate(140,208)"/>
<path d="M0 0 C0.66 0 1.32 0 2 0 C2.33 0.99 2.66 1.98 3 3 C-2.625 6 -2.625 6 -6 6 C-5.34 4.68 -4.68 3.36 -4 2 C-2.68 2 -1.36 2 0 2 C0 1.34 0 0.68 0 0 Z " fill="#E9E9E9" transform="translate(169,202)"/>
<path d="M0 0 C0.33 0.99 0.66 1.98 1 3 C0.50628906 3.31453125 0.01257813 3.6290625 -0.49609375 3.953125 C-1.13675781 4.38109375 -1.77742188 4.8090625 -2.4375 5.25 C-3.07558594 5.66765625 -3.71367188 6.0853125 -4.37109375 6.515625 C-6.29902057 8.27248877 -6.61479436 9.46089803 -7 12 C-7.66 11.01 -8.32 10.02 -9 9 C-6 6 -3 3 0 0 Z " fill="#424242" transform="translate(87,150)"/>
<path d="M0 0 C4.99275057 1.27721526 7.57611908 3.17330957 11 7 C10.01 7.495 10.01 7.495 9 8 C7.49460339 7.05016642 5.99579653 6.08988109 4.5 5.125 C3.6646875 4.59132813 2.829375 4.05765625 1.96875 3.5078125 C1.3190625 3.01023437 0.669375 2.51265625 0 2 C0 1.34 0 0.68 0 0 Z " fill="#2A2A2A" transform="translate(261,112)"/>
<path d="M0 0 C1.32 0 2.64 0 4 0 C3.67 1.65 3.34 3.3 3 5 C1.35 5.33 -0.3 5.66 -2 6 C-1.34 4.02 -0.68 2.04 0 0 Z " fill="#EFEFEF" transform="translate(190,153)"/>
<path d="M0 0 C0.33 1.32 0.66 2.64 1 4 C-0.9375 6.25 -0.9375 6.25 -3 8 C-3.99 7.67 -4.98 7.34 -6 7 C-4.02 4.69 -2.04 2.38 0 0 Z " fill="#1D1D1D" transform="translate(86,145)"/>
<path d="M0 0 C0.33 0 0.66 0 1 0 C1 3.3 1 6.6 1 10 C-0.32 10.33 -1.64 10.66 -3 11 C-3 9.68 -3 8.36 -3 7 C-2.34 7 -1.68 7 -1 7 C-0.67 4.69 -0.34 2.38 0 0 Z " fill="#0E0E0E" transform="translate(105,142)"/>
<path d="M0 0 C2 1.3125 2 1.3125 4 3 C4 3.99 4 4.98 4 6 C3.34 6 2.68 6 2 6 C2 6.66 2 7.32 2 8 C0.68 8 -0.64 8 -2 8 C-1.34 5.36 -0.68 2.72 0 0 Z " fill="#E2E2E2" transform="translate(43,142)"/>
<path d="M0 0 C1.65 0.33 3.3 0.66 5 1 C5 1.99 5 2.98 5 4 C2.03 3.67 -0.94 3.34 -4 3 C-2.68 2.67 -1.36 2.34 0 2 C0 1.34 0 0.68 0 0 Z " fill="#2C2C2C" transform="translate(51,216)"/>
<path d="M0 0 C2.31 0.66 4.62 1.32 7 2 C6.01 3.485 6.01 3.485 5 5 C5 4.34 5 3.68 5 3 C4.34 3.66 3.68 4.32 3 5 C2.01 5.495 2.01 5.495 1 6 C0.01 5.34 -0.98 4.68 -2 4 C-1.34 2.68 -0.68 1.36 0 0 Z " fill="#1B1B1B" transform="translate(211,202)"/>
<path d="M0 0 C1.65 0 3.3 0 5 0 C5 0.99 5 1.98 5 3 C5.33 3.99 5.66 4.98 6 6 C5.01 6 4.02 6 3 6 C2.01 4.02 1.02 2.04 0 0 Z " fill="#1F1F1F" transform="translate(192,190)"/>
<path d="M0 0 C1.65 0.33 3.3 0.66 5 1 C5 2.32 5 3.64 5 5 C2.69 5 0.38 5 -2 5 C-1.34 3.35 -0.68 1.7 0 0 Z " fill="#4A4A4A" transform="translate(98,153)"/>
<path d="M0 0 C0.99 0 1.98 0 3 0 C3.125 5.75 3.125 5.75 2 8 C0.68 7.67 -0.64 7.34 -2 7 C-1.34 6.34 -0.68 5.68 0 5 C0.16687448 2.41645782 0.16687448 2.41645782 0 0 Z " fill="#A9A9A9" transform="translate(102,140)"/>
<path d="M0 0 C0.66 0.99 1.32 1.98 2 3 C0.68 4.65 -0.64 6.3 -2 8 C-2.99 7.67 -3.98 7.34 -5 7 C-3.35 4.69 -1.7 2.38 0 0 Z " fill="#E0E0E0" transform="translate(266,208)"/>
<path d="M0 0 C0.99 0.33 1.98 0.66 3 1 C1.02 3.97 1.02 3.97 -1 7 C-1.99 6.67 -2.98 6.34 -4 6 C-3.34 4.68 -2.68 3.36 -2 2 C-1.34 2 -0.68 2 0 2 C0 1.34 0 0.68 0 0 Z " fill="#1A1A1A" transform="translate(240,194)"/>
<path d="M0 0 C3 1 3 1 4 3 C3.01 3 2.02 3 1 3 C0.67 4.32 0.34 5.64 0 7 C-0.66 6.34 -1.32 5.68 -2 5 C-1.46428571 1.46428571 -1.46428571 1.46428571 0 0 Z " fill="#0E0E0E" transform="translate(80,192)"/>
<path d="M0 0 C0.66 0.33 1.32 0.66 2 1 C1.67 3.31 1.34 5.62 1 8 C-0.32 8 -1.64 8 -3 8 C-2.37240135 5.07120629 -1.41377341 2.63904371 0 0 Z " fill="#E1E1E1" transform="translate(78,160)"/>
<path d="M0 0 C2.31 0.33 4.62 0.66 7 1 C6.01 2.32 5.02 3.64 4 5 C2.68 4.67 1.36 4.34 0 4 C0 2.68 0 1.36 0 0 Z " fill="#2F2F2F" transform="translate(246,225)"/>
<path d="M0 0 C2.31 0.33 4.62 0.66 7 1 C5.515 2.485 5.515 2.485 4 4 C1.525 3.01 1.525 3.01 -1 2 C-0.67 1.34 -0.34 0.68 0 0 Z " fill="#EAEAEA" transform="translate(36,216)"/>
<path d="M0 0 C2.125 0.375 2.125 0.375 4 1 C3.67 2.65 3.34 4.3 3 6 C2.34 5.67 1.68 5.34 1 5 C0.34 5 -0.32 5 -1 5 C-1.33 4.01 -1.66 3.02 -2 2 C-1.34 1.34 -0.68 0.68 0 0 Z " fill="#EFEFEF" transform="translate(123,198)"/>
<path d="M0 0 C1.65 0.33 3.3 0.66 5 1 C4.34 2.32 3.68 3.64 3 5 C2.01 4.67 1.02 4.34 0 4 C-0.99 4 -1.98 4 -3 4 C-2.01 2.68 -1.02 1.36 0 0 Z " fill="#1E1E1E" transform="translate(276,185)"/>
<path d="M0 0 C0.99 0 1.98 0 3 0 C3.185625 1.7015625 3.185625 1.7015625 3.375 3.4375 C3.684375 5.2009375 3.684375 5.2009375 4 7 C4.66 7.33 5.32 7.66 6 8 C5.01 8.33 4.02 8.66 3 9 C2.01 6.03 1.02 3.06 0 0 Z " fill="#1C1C1C" transform="translate(70,182)"/>
<path d="M0 0 C1.32 0.99 2.64 1.98 4 3 C3.67 4.32 3.34 5.64 3 7 C2.01 6.67 1.02 6.34 0 6 C-0.38218767 4.34385343 -0.71395102 2.67542976 -1 1 C-0.67 0.67 -0.34 0.34 0 0 Z " fill="#0D0D0D" transform="translate(197,192)"/>
<path d="M0 0 C0.66 0.33 1.32 0.66 2 1 C1.34 2.98 0.68 4.96 0 7 C-0.99 6.67 -1.98 6.34 -3 6 C-1.125 1.125 -1.125 1.125 0 0 Z " fill="#212121" transform="translate(46,130)"/>
<path d="M0 0 C2.475 0.99 2.475 0.99 5 2 C4.67 3.65 4.34 5.3 4 7 C2 5.1875 2 5.1875 0 3 C0 2.01 0 1.02 0 0 Z " fill="#EBEBEB" transform="translate(274,117)"/>
<path d="M0 0 C0.66 0 1.32 0 2 0 C1.01 2.97 0.02 5.94 -1 9 C-1.66 7.68 -2.32 6.36 -3 5 C-1.75 2.25 -1.75 2.25 0 0 Z " fill="#383838" transform="translate(54,110)"/>
<path d="M0 0 C0.33 0.99 0.66 1.98 1 3 C-0.21484375 4.82421875 -0.21484375 4.82421875 -1.9375 6.6875 C-2.50339844 7.31011719 -3.06929688 7.93273437 -3.65234375 8.57421875 C-4.09707031 9.04472656 -4.54179687 9.51523438 -5 10 C-5.33 9.01 -5.66 8.02 -6 7 C-4.78515625 5.17578125 -4.78515625 5.17578125 -3.0625 3.3125 C-2.49660156 2.68988281 -1.93070312 2.06726563 -1.34765625 1.42578125 C-0.90292969 0.95527344 -0.45820313 0.48476562 0 0 Z " fill="#E3E3E3" transform="translate(260,217)"/>
<path d="M0 0 C0.66 0.99 1.32 1.98 2 3 C1 4 1 4 -2.0625 4.0625 C-3.031875 4.041875 -4.00125 4.02125 -5 4 C-5 3.01 -5 2.02 -5 1 C-4.01 1 -3.02 1 -2 1 C-1.34 0.67 -0.68 0.34 0 0 Z " fill="#101010" transform="translate(227,188)"/>
<path d="M0 0 C0.66 0.33 1.32 0.66 2 1 C1 3 0 5 -1 7 C-1.66 7 -2.32 7 -3 7 C-2.25 2.25 -2.25 2.25 0 0 Z " fill="#0C0C0C" transform="translate(80,152)"/>
<path d="M0 0 C1.98 0.99 1.98 0.99 4 2 C3.34 3.32 2.68 4.64 2 6 C1.34 5.67 0.68 5.34 0 5 C0 3.35 0 1.7 0 0 Z " fill="#0E0E0E" transform="translate(28,205)"/>
<path d="M0 0 C-0.33 0.99 -0.66 1.98 -1 3 C-2.65 3.33 -4.3 3.66 -6 4 C-6.33 3.01 -6.66 2.02 -7 1 C-4.53721199 -0.231394 -2.7204945 -0.07159196 0 0 Z " fill="#0D0D0D" transform="translate(231,204)"/>
<path d="M0 0 C0.99 0.33 1.98 0.66 3 1 C2.34 2.98 1.68 4.96 1 7 C0.34 7 -0.32 7 -1 7 C-1.04254356 5.00045254 -1.04080783 2.99958364 -1 1 C-0.67 0.67 -0.34 0.34 0 0 Z " fill="#5C5C5C" transform="translate(225,196)"/>
<path d="M0 0 C0.99 0 1.98 0 3 0 C2.34 1.98 1.68 3.96 1 6 C0.01 6 -0.98 6 -2 6 C-1.34 4.02 -0.68 2.04 0 0 Z " fill="#080808" transform="translate(117,197)"/>
<path d="M0 0 C0.66 0.99 1.32 1.98 2 3 C0.515 5.475 0.515 5.475 -1 8 C-1.66 7.67 -2.32 7.34 -3 7 C-2.01 4.69 -1.02 2.38 0 0 Z " fill="#DDDDDD" transform="translate(246,186)"/>
<path d="M0 0 C0.66 0 1.32 0 2 0 C0.25 5.75 0.25 5.75 -2 8 C-3 5 -3 5 -2 2 C-1.34 2 -0.68 2 0 2 C0 1.34 0 0.68 0 0 Z " fill="#E6E6E6" transform="translate(124,183)"/>
<path d="M0 0 C2 3 2 3 2 5 C1.01 5.33 0.02 5.66 -1 6 C-1.66 5.67 -2.32 5.34 -3 5 C-1.125 1.125 -1.125 1.125 0 0 Z " fill="#555555" transform="translate(221,158)"/>
<path d="M0 0 C0.66 0 1.32 0 2 0 C2 1.65 2 3.3 2 5 C3.32 5.33 4.64 5.66 6 6 C2.125 8 2.125 8 1 8 C0.67 5.36 0.34 2.72 0 0 Z " fill="#535353" transform="translate(215,148)"/>
</svg>
